<svg fill="none" height="24" viewBox="0 0 24 24" width="24" xmlns="http://www.w3.org/2000/svg" xmlns:xlink="http://www.w3.org/1999/xlink"><clipPath id="a"><path d="m0 0h24v24h-24z"/></clipPath><g clip-path="url(#a)"><path d="m12 19.7499c-4.28021 0-7.75-3.4698-7.75-7.75h-2.5c0 5.661 4.58908 10.25 10.25 10.25zm0-15.49996c4.2802 0 7.75 3.46979 7.75 7.74996h2.5c0-5.66088-4.5891-10.24996-10.25-10.24996zm-7.75 7.74996c0-2.14041.86608-4.0762 2.26992-5.48004l-1.76776-1.76777c-1.85352 1.85352-3.00216 4.41774-3.00216 7.24781zm2.26992-5.48004c1.40385-1.40384 3.33963-2.26992 5.48008-2.26992v-2.5c-2.83011 0-5.39433 1.14864-7.24784 3.00215zm-1.76776 0 12.72794 12.72794 1.7677-1.7678-12.72788-12.72791zm14.99784 5.48004c0 2.1405-.8661 4.0763-2.2699 5.4801l1.7677 1.7678c1.8536-1.8535 3.0022-4.4177 3.0022-7.2479zm-2.2699 5.4801c-1.4039 1.4039-3.3397 2.2699-5.4801 2.2699v2.5c2.8301 0 5.3943-1.1486 7.2478-3.0021z" fill="#292929"/></g></svg>